<svg width="30" height="30" viewBox="0 0 30 30" fill="none" xmlns="http://www.w3.org/2000/svg">
<rect width="30" height="30" rx="15" fill="#4969EF"/>
<path d="M12.5385 18.0139H17.4615M19.6154 14.6528H20.0769C20.3217 14.6528 20.5565 14.7494 20.7296 14.9213C20.9027 15.0932 21 15.3263 21 15.5694V16.7917C21 17.0348 20.9027 17.2679 20.7296 17.4398C20.5565 17.6117 20.3217 17.7083 20.0769 17.7083H19.6154M19.6154 14.6528C19.6162 14.3516 19.5571 14.0532 19.4414 13.7748C19.3257 13.4964 19.1557 13.2435 18.9413 13.0305C18.7268 12.8176 18.4721 12.6488 18.1918 12.5339C17.9114 12.419 17.611 12.3603 17.3077 12.3611H12.6923C12.389 12.3603 12.0886 12.419 11.8082 12.5339C11.5279 12.6488 11.2732 12.8176 11.0587 13.0305C10.8443 13.2435 10.6743 13.4964 10.5586 13.7748C10.4429 14.0532 10.3838 14.3516 10.3846 14.6528M19.6154 14.6528V17.7083M19.6154 17.7083C19.6162 18.0095 19.5571 18.3079 19.4414 18.5863C19.3257 18.8647 19.1557 19.1176 18.9413 19.3306C18.7268 19.5435 18.4721 19.7123 18.1918 19.8272C17.9114 19.9421 17.611 20.0008 17.3077 20H12.6923C12.389 20.0008 12.0886 19.9421 11.8082 19.8272C11.5279 19.7123 11.2732 19.5435 11.0587 19.3306C10.8443 19.1176 10.6743 18.8647 10.5586 18.5863C10.4429 18.3079 10.3838 18.0095 10.3846 17.7083M10.3846 14.6528H9.92308C9.67826 14.6528 9.44347 14.7494 9.27036 14.9213C9.09725 15.0932 9 15.3263 9 15.5694V16.7917C9 17.0348 9.09725 17.2679 9.27036 17.4398C9.44347 17.6117 9.67826 17.7083 9.92308 17.7083H10.3846M10.3846 14.6528V17.7083M15 12.0556V10.8333M15 10.8333C15.2448 10.8333 15.4796 10.7368 15.6527 10.5648C15.8258 10.3929 15.9231 10.1598 15.9231 9.91667C15.9231 9.67355 15.8258 9.44039 15.6527 9.26849C15.4796 9.09658 15.2448 9 15 9C14.7552 9 14.5204 9.09658 14.3473 9.26849C14.1742 9.44039 14.0769 9.67355 14.0769 9.91667C14.0769 10.1598 14.1742 10.3929 14.3473 10.5648C14.5204 10.7368 14.7552 10.8333 15 10.8333ZM17.6154 15.2639C17.6154 15.507 17.5181 15.7402 17.345 15.9121C17.1719 16.084 16.9371 16.1806 16.6923 16.1806C16.4475 16.1806 16.2127 16.084 16.0396 15.9121C15.8665 15.7402 15.7692 15.507 15.7692 15.2639C15.7692 15.0208 15.8665 14.7876 16.0396 14.6157C16.2127 14.4438 16.4475 14.3472 16.6923 14.3472C16.9371 14.3472 17.1719 14.4438 17.345 14.6157C17.5181 14.7876 17.6154 15.0208 17.6154 15.2639ZM14.2308 15.2639C14.2308 15.507 14.1335 15.7402 13.9604 15.9121C13.7873 16.084 13.5525 16.1806 13.3077 16.1806C13.0629 16.1806 12.8281 16.084 12.655 15.9121C12.4819 15.7402 12.3846 15.507 12.3846 15.2639C12.3846 15.0208 12.4819 14.7876 12.655 14.6157C12.8281 14.4438 13.0629 14.3472 13.3077 14.3472C13.5525 14.3472 13.7873 14.4438 13.9604 14.6157C14.1335 14.7876 14.2308 15.0208 14.2308 15.2639Z" stroke="white" stroke-linecap="round" stroke-linejoin="round"/>
</svg>
