<svg width="30" height="30" viewBox="0 0 30 30" fill="none" xmlns="http://www.w3.org/2000/svg">
<path d="M0 15C0 11.0218 1.58035 7.20644 4.3934 4.3934C7.20644 1.58035 11.0218 0 15 0C18.9782 0 22.7936 1.58035 25.6066 4.3934C28.4196 7.20644 30 11.0218 30 15C30 18.9782 28.4196 22.7936 25.6066 25.6066C22.7936 28.4196 18.9782 30 15 30C11.0218 30 7.20644 28.4196 4.3934 25.6066C1.58035 22.7936 0 18.9782 0 15ZM5.06359 18.5362C4.64547 21.7707 6.47669 24.5093 9.58636 25.3029C9.96289 25.3981 10.5288 25.4758 10.8451 25.4736C11.1614 25.4725 11.8138 25.3751 12.2954 25.258C13.8464 24.8804 14.5798 24.3298 17.3064 21.497C20.0975 18.5975 20.2814 18.2812 20.0111 16.8659C19.6225 14.8322 17.8055 13.8515 15.7291 14.5553C15.0023 14.8016 15.0023 14.8016 14.3368 14.5575C12.5154 13.8876 10.7532 14.6647 10.1599 16.4007C9.62686 17.9594 9.99026 18.7311 12.4344 21.2398C14.3839 23.2385 14.3937 23.3272 12.7212 24.0091C9.51521 25.316 6.05637 22.9539 6.05637 19.4568C6.05637 17.4931 6.20414 17.2578 12.2319 11.2004L13.2171 11.6612C14.5951 12.307 15.6612 12.3267 16.909 11.7291C17.371 11.508 17.8132 11.3635 17.9182 11.3996C18.4546 11.5835 23.1733 16.5682 23.5213 17.3169C25.3329 21.2267 21.9495 25.2317 17.7683 24.1295C16.5358 23.8044 16.2512 23.8504 16.3114 24.3637C16.3629 24.8081 17.3502 25.2492 18.6297 25.3992C22.2199 25.8195 25.6185 22.3278 25.0691 18.7836C24.7615 16.8101 24.4298 16.3055 18.7611 10.536L19.1836 9.41189C19.7297 7.96158 19.7079 7.07607 19.0971 5.82936C16.6398 0.815127 9.20107 3.97734 11.0279 9.26084C11.4668 10.5283 11.6617 10.2 8.67568 13.2177C5.65247 16.2738 5.28689 16.8123 5.06359 18.5362Z" fill="#EF668C"/>
<path d="M5.06368 18.5363C5.28697 16.8123 5.65255 16.2738 8.67576 13.2178C11.6617 10.2 11.4669 10.5284 11.028 9.26089C9.20115 3.9774 16.6399 0.815185 19.0972 5.82941C19.7079 7.07613 19.7298 7.96164 19.1836 9.41194L18.7611 10.5361C24.4299 16.3056 24.7616 16.8101 25.0691 18.7837C25.6186 22.3279 22.22 25.8196 18.6298 25.3992C17.3502 25.2493 16.3629 24.8082 16.3115 24.3638C16.2513 23.8504 16.5359 23.8045 17.7684 24.1295C21.9496 25.2318 25.3329 21.2267 23.5214 17.3169C23.1734 16.5682 18.4547 11.5836 17.9183 11.3997C17.8132 11.3636 17.371 11.508 16.9091 11.7292C15.6613 12.3268 14.5952 12.3071 13.2171 11.6613L12.232 11.2005C6.20422 17.2578 6.05645 17.4932 6.05645 19.4568C6.05645 22.954 9.5153 25.3161 12.7213 24.0091C14.3938 23.3272 14.3839 23.2386 12.4345 21.2399C9.99034 18.7311 9.62694 17.9594 10.16 16.4008C10.7533 14.6648 12.5155 13.8876 14.3369 14.5575C15.0024 14.8016 15.0024 14.8016 15.7292 14.5553C17.8056 13.8515 19.6226 14.8323 20.0111 16.866C20.2815 18.2813 20.0976 18.5976 17.3065 21.4971C14.5799 24.3299 13.8465 24.8804 12.2955 25.258C11.8139 25.3752 11.1615 25.4726 10.8452 25.4737C10.5289 25.4759 9.96298 25.3982 9.58644 25.3029C6.47677 24.5094 4.64555 21.7707 5.06368 18.5363ZM11.2009 18.2156C11.2951 18.4411 12.1116 19.3725 13.1164 20.4003C14.0797 21.3865 14.9312 22.1932 15.0089 22.1932C15.0867 22.1932 15.9459 21.392 16.9201 20.4113C17.9938 19.3299 18.7557 18.4717 18.8586 18.2265C19.6751 16.2716 17.4466 14.5827 15.6876 15.8228C15.0615 16.2629 14.9345 16.2607 14.2865 15.7889C12.5921 14.5575 10.3942 16.2848 11.2009 18.2156ZM11.632 7.78366C11.632 8.6947 11.9939 9.56843 12.6381 10.2126C13.2823 10.8568 14.156 11.2188 15.0671 11.2188C15.9781 11.2188 16.8518 10.8568 17.496 10.2126C18.1403 9.56843 18.5022 8.6947 18.5022 7.78366C18.5022 6.87262 18.1403 5.99889 17.496 5.35468C16.8518 4.71048 15.9781 4.34857 15.0671 4.34857C14.156 4.34857 13.2823 4.71048 12.6381 5.35468C11.9939 5.99889 11.632 6.87262 11.632 7.78366Z" fill="#F9F7F9"/>
<path d="M11.201 18.2154C10.3943 16.2846 12.5922 14.5573 14.2866 15.7887C14.9346 16.2605 15.0616 16.2627 15.6877 15.8227C17.4466 14.5825 19.6752 16.2714 18.8586 18.2263C18.7557 18.4715 17.9939 19.3297 16.9202 20.4111C15.946 21.3918 15.0867 22.1931 15.009 22.1931C14.9313 22.1931 14.0797 21.3864 13.1165 20.4002C12.1117 19.3724 11.2952 18.4409 11.201 18.2154Z" fill="#EF668C"/>
<path d="M11.6321 7.78372C11.6321 6.87268 11.994 5.99895 12.6382 5.35475C13.2824 4.71054 14.1561 4.34863 15.0672 4.34863C15.9782 4.34863 16.8519 4.71054 17.4961 5.35475C18.1404 5.99895 18.5023 6.87268 18.5023 7.78372C18.5023 8.69477 18.1404 9.5685 17.4961 10.2127C16.8519 10.8569 15.9782 11.2188 15.0672 11.2188C14.1561 11.2188 13.2824 10.8569 12.6382 10.2127C11.994 9.5685 11.6321 8.69477 11.6321 7.78372Z" fill="#EF668C"/>
</svg>
