<svg width="30" height="30" viewBox="0 0 30 30" fill="none" xmlns="http://www.w3.org/2000/svg">
<rect width="30" height="30" rx="15" fill="#F49D0B"/>
<path d="M15 12.5C15.4286 10.8552 17.0472 10.0154 20.5714 10C20.6278 9.9998 20.6836 10.0104 20.7357 10.0313C20.7878 10.0522 20.8351 10.0828 20.8749 10.1216C20.9148 10.1603 20.9463 10.2063 20.9678 10.257C20.9893 10.3076 21.0002 10.3619 21 10.4167V17.9167C21 18.0272 20.9548 18.1332 20.8745 18.2113C20.7941 18.2894 20.6851 18.3333 20.5714 18.3333C17.1429 18.3333 15.8183 19.0055 15 20M15 12.5C14.5714 10.8552 12.9528 10.0154 9.42857 10C9.37223 9.9998 9.31641 10.0104 9.26432 10.0313C9.21222 10.0522 9.16489 10.0828 9.12505 10.1216C9.08522 10.1603 9.05366 10.2063 9.03219 10.257C9.01073 10.3076 8.99979 10.3619 9 10.4167V17.8664C9 18.1237 9.16393 18.3333 9.42857 18.3333C12.8571 18.3333 14.1865 19.0104 15 20M15 12.5V20" stroke="white" stroke-linecap="round" stroke-linejoin="round"/>
</svg>
