<svg width="24" height="24" viewBox="0 0 24 24" fill="none" xmlns="http://www.w3.org/2000/svg">
<g clip-path="url(#clip0_61_386)">
<path d="M22.5 2.24735L16.4948 2.24737V0.752624C16.4948 0.338249 16.1591 0.00262451 15.7448 0.00262451C15.3304 0.00262451 14.9948 0.338249 14.9948 0.752624V2.247H8.99475V0.752624C8.99475 0.338249 8.65913 0.00262451 8.24475 0.00262451C7.83038 0.00262451 7.49475 0.338249 7.49475 0.752624V2.247H1.5C0.671625 2.247 0 2.91862 0 3.747V22.497C0 23.3254 0.671625 23.997 1.5 23.997H22.5C23.3284 23.997 24 23.3254 24 22.497V3.747C24 2.91898 23.3284 2.24735 22.5 2.24735ZM22.5 22.497H1.5V3.747H7.49475V4.50262C7.49475 4.91698 7.83038 5.25262 8.24475 5.25262C8.65913 5.25262 8.99475 4.91698 8.99475 4.50262V3.74737H14.9948V4.503C14.9948 4.91737 15.3304 5.253 15.7448 5.253C16.1591 5.253 16.4948 4.91737 16.4948 4.503V3.74737H22.5V22.497ZM17.25 11.9974H18.75C19.164 11.9974 19.5 11.6614 19.5 11.2474V9.74735C19.5 9.33335 19.164 8.99735 18.75 8.99735H17.25C16.836 8.99735 16.5 9.33335 16.5 9.74735V11.2474C16.5 11.6614 16.836 11.9974 17.25 11.9974ZM17.25 17.997H18.75C19.164 17.997 19.5 17.6614 19.5 17.247V15.747C19.5 15.333 19.164 14.997 18.75 14.997H17.25C16.836 14.997 16.5 15.333 16.5 15.747V17.247C16.5 17.6617 16.836 17.997 17.25 17.997ZM12.75 14.997H11.25C10.836 14.997 10.5 15.333 10.5 15.747V17.247C10.5 17.6614 10.836 17.997 11.25 17.997H12.75C13.164 17.997 13.5 17.6614 13.5 17.247V15.747C13.5 15.3334 13.164 14.997 12.75 14.997ZM12.75 8.99735H11.25C10.836 8.99735 10.5 9.33335 10.5 9.74735V11.2474C10.5 11.6614 10.836 11.9974 11.25 11.9974H12.75C13.164 11.9974 13.5 11.6614 13.5 11.2474V9.74735C13.5 9.33298 13.164 8.99735 12.75 8.99735ZM6.75 8.99735H5.25C4.836 8.99735 4.5 9.33335 4.5 9.74735V11.2474C4.5 11.6614 4.836 11.9974 5.25 11.9974H6.75C7.164 11.9974 7.5 11.6614 7.5 11.2474V9.74735C7.5 9.33298 7.164 8.99735 6.75 8.99735ZM6.75 14.997H5.25C4.836 14.997 4.5 15.333 4.5 15.747V17.247C4.5 17.6614 4.836 17.997 5.25 17.997H6.75C7.164 17.997 7.5 17.6614 7.5 17.247V15.747C7.5 15.3334 7.164 14.997 6.75 14.997Z" fill="#ED3C8C"/>
</g>
<defs>
<clipPath id="clip0_61_386">
<rect width="24" height="24" fill="white"/>
</clipPath>
</defs>
</svg>
