<svg width="24" height="24" viewBox="0 0 24 24" fill="none" xmlns="http://www.w3.org/2000/svg">
<g clip-path="url(#clip0_53_303)">
<path d="M3.69376 15.975C3.46876 15.9938 1.70626 16.0688 1.44376 16.0875C0.956259 16.125 0.993759 16.95 1.48126 16.9313C1.74376 16.9125 3.73126 16.8188 3.73126 16.8188C4.25626 16.7625 4.20001 15.9375 3.69376 15.975ZM5.43751 18.7875C5.36251 19.0125 4.80001 20.6625 4.70626 20.925C4.55626 21.3938 5.34376 21.6563 5.49376 21.1875C5.58751 20.925 6.22501 19.05 6.22501 19.05C6.37501 18.5813 5.58751 18.3188 5.43751 18.7875ZM20.8875 3.45C20.7188 3.6 19.35 4.70625 19.1625 4.89375C18.7875 5.2125 19.3125 5.85 19.6875 5.53125C19.8938 5.3625 21.4125 4.0875 21.4125 4.0875C21.8063 3.75 21.2625 3.1125 20.8875 3.45ZM15.1875 2.2875C15.2625 2.5125 15.7313 4.2 15.8063 4.44375C15.9375 4.9125 16.7438 4.6875 16.6125 4.21875C16.5375 3.95625 15.9938 2.0625 15.9938 2.0625C15.8438 1.575 15.0375 1.8 15.1875 2.2875ZM4.33126 17.4563C4.14376 17.5875 1.70626 19.2938 1.48126 19.4625C1.08751 19.7438 1.57501 20.4375 1.96876 20.1375C2.19376 19.9688 4.81876 18.1313 4.81876 18.1313C5.23126 17.8125 4.72501 17.1375 4.33126 17.4563ZM18.675 1.0875C18.6 1.3125 17.5875 4.125 17.5125 4.3875C17.3625 4.85625 18.15 5.1375 18.3 4.66875C18.3938 4.40625 19.4625 1.36875 19.4625 1.36875C19.6125 0.881252 18.825 0.618752 18.675 1.0875Z" fill="#BDCCD4"/>
<path d="M18.5625 8.38124C18.9188 7.53749 19.5938 6.93749 20.3813 7.12499C20.925 7.23749 21.0375 7.74374 21 8.04374C20.5688 11.025 21.2063 13.3125 21.0375 15.525C20.8313 18.3187 19.0688 21.2062 15.375 21.4687C13.0313 22.0312 10.425 21.6375 8.32501 19.5937C7.16251 18.4687 6.15001 17.6062 4.74376 15.3187C4.16251 14.3625 3.26251 12.8437 3.26251 11.85C3.26251 11.0062 4.10626 10.7437 4.53751 11.1375C3.97501 10.2375 3.71251 9.58124 3.69376 8.81249C3.67501 8.17499 4.46251 7.72499 4.96876 8.21249C4.53751 7.51874 3.93751 6.29999 4.83751 5.68124C5.11876 5.49374 5.83126 5.24999 6.69376 6.33749C6.46876 5.90624 6.22501 5.17499 6.82501 4.68749C7.14376 4.42499 7.76251 4.34999 8.28751 4.94999C8.25001 4.72499 8.56876 4.16249 9.09376 4.14374C9.73126 4.10624 10.2375 4.68749 10.6125 5.11874C10.2375 3.61874 11.7938 3.18749 12.6563 4.19999C13.1063 4.70624 14.1563 5.98124 15.7313 8.60624C15.6938 7.03124 16.4625 5.64374 17.5875 5.84999C17.9813 5.92499 18.375 6.18749 18.4125 6.91874C18.4875 7.57499 18.5625 8.38124 18.5625 8.38124Z" fill="#FFCA28"/>
<mask id="mask0_53_303" style="mask-type:luminance" maskUnits="userSpaceOnUse" x="3" y="3" width="19" height="19">
<path d="M18.5625 8.38124C18.9188 7.53749 19.5938 6.93749 20.3813 7.12499C20.925 7.23749 21.0375 7.74374 21 8.04374C20.5688 11.025 21.2063 13.3125 21.0375 15.525C20.8313 18.3187 19.0688 21.2062 15.375 21.4687C13.0313 22.0312 10.425 21.6375 8.32501 19.5937C7.16251 18.4687 6.15001 17.6062 4.74376 15.3187C4.16251 14.3625 3.26251 12.8437 3.26251 11.85C3.26251 11.0062 4.10626 10.7437 4.53751 11.1375C3.97501 10.2375 3.71251 9.58124 3.69376 8.81249C3.67501 8.17499 4.46251 7.72499 4.96876 8.21249C4.53751 7.51874 3.93751 6.29999 4.83751 5.68124C5.11876 5.49374 5.83126 5.24999 6.69376 6.33749C6.46876 5.90624 6.22501 5.17499 6.82501 4.68749C7.14376 4.42499 7.76251 4.34999 8.28751 4.94999C8.25001 4.72499 8.56876 4.16249 9.09376 4.14374C9.73126 4.10624 10.2375 4.68749 10.6125 5.11874C10.2375 3.61874 11.7938 3.18749 12.6563 4.19999C13.1063 4.70624 14.1563 5.98124 15.7313 8.60624C15.6938 7.03124 16.4625 5.64374 17.5875 5.84999C17.9813 5.92499 18.375 6.18749 18.4125 6.91874C18.4875 7.57499 18.5625 8.38124 18.5625 8.38124Z" fill="white"/>
</mask>
<g mask="url(#mask0_53_303)">
<path d="M14.1938 21.375C12.7688 21.3375 10.3313 21.4312 7.25627 18.0187C6.71252 17.4187 4.68752 14.9625 3.61877 12.15C3.52502 11.925 3.54377 11.4187 3.91877 11.2875C4.29377 11.1562 4.55627 11.4937 4.76252 11.8125C4.91252 12.0375 5.71877 13.3687 6.18752 13.9125C6.37502 14.1187 6.46877 13.9687 6.50627 13.9312C5.43752 12.1125 4.01252 9.78749 4.01252 8.90624C4.01252 8.41874 4.53752 8.09999 4.91252 8.58749C5.21252 8.96249 6.54377 10.6312 6.71252 10.8562C6.88127 11.0625 7.01252 10.8937 7.06877 10.8562C6.30002 9.86249 4.61252 7.27499 4.74377 6.44999C4.81877 5.96249 5.47502 5.60624 5.92502 6.05624C6.26252 6.39374 8.11877 8.45624 8.11877 8.45624C8.11877 8.45624 8.30627 8.66249 8.45627 8.47499C7.55627 7.34999 6.30002 5.60624 7.05002 4.98749C7.35002 4.74374 7.74377 4.63124 8.55002 5.49374C9.07502 6.05624 12.6 9.24374 15.7125 11.3062C16.0125 11.4937 16.2188 11.1937 16.2 10.9125C15.9375 8.11874 16.2188 6.11249 17.4 6.09374C17.9438 6.09374 18.1688 6.50624 18.2063 7.06874C18.2438 7.61249 18.4125 9.13124 18.8063 10.6875C19.2 12.2625 19.7813 14.4562 19.6125 16.1062C19.4438 17.7562 18.2625 19.7437 17.1563 20.4187C16.0313 21.0937 15.2625 21.2625 15.1313 21.3C15 21.3375 14.8125 21.75 15.2813 21.6562C15.75 21.5812 17.1938 21.45 17.1938 21.45L19.275 20.3437L21.0563 18.1125L21.825 14.9437L21.5813 5.86874L16.5 4.98749L11.7 2.73749L3.80627 4.79999L2.45627 12.3375L5.70002 17.9625L9.73127 21.6937C9.73127 21.6937 13.9313 21.9937 14.2313 21.9562C14.5125 21.9375 14.6625 21.3937 14.1938 21.375Z" fill="#FAA700"/>
</g>
<mask id="mask1_53_303" style="mask-type:luminance" maskUnits="userSpaceOnUse" x="-5" y="3" width="19" height="19">
<path d="M10.7676 8.38127C11.1238 7.53752 11.7988 6.93752 12.5863 7.12502C13.1301 7.23752 13.2426 7.74377 13.2051 8.04377C12.7738 11.025 13.4113 13.3125 13.2426 15.525C13.0363 18.3188 11.2738 21.2063 7.58009 21.4688C5.23634 22.0313 2.63009 21.6375 0.53009 19.5938C-0.63241 18.4688 -1.64491 17.6063 -3.05116 15.3188C-3.63241 14.3625 -4.53241 12.8438 -4.53241 11.85C-4.53241 11.0063 -3.68866 10.7438 -3.25741 11.1375C-3.81991 10.2375 -4.08241 9.58127 -4.10116 8.81252C-4.11991 8.17502 -3.33241 7.72502 -2.82616 8.21252C-3.25741 7.51877 -3.85741 6.30002 -2.95741 5.68127C-2.67616 5.49377 -1.96366 5.25002 -1.10116 6.33752C-1.32616 5.90627 -1.56991 5.17502 -0.96991 4.68752C-0.65116 4.42502 -0.0324097 4.35002 0.49259 4.95002C0.45509 4.72502 0.77384 4.16252 1.29884 4.14377C1.93634 4.10627 2.44259 4.68752 2.81759 5.11877C2.44259 3.61877 3.99884 3.18752 4.86134 4.20002C5.31134 4.70627 6.36134 5.98127 7.93634 8.60627C7.89884 7.03127 8.66759 5.64377 9.79259 5.85002C10.1863 5.92502 10.5801 6.18752 10.6176 6.91877C10.6926 7.57502 10.7676 8.38127 10.7676 8.38127Z" fill="white"/>
</mask>
<g mask="url(#mask1_53_303)">
<path d="M26.9303 5.56776C26.7991 5.64276 26.7991 5.77401 26.9303 5.98026C27.0241 6.13026 27.0991 6.31775 27.0803 6.80525C27.0053 10.5553 28.3553 12.1115 28.2803 15.6553C28.2053 19.4615 25.3178 21.749 20.7053 21.2053C20.2366 21.149 20.3866 21.5803 20.3866 21.5803C20.3866 21.5803 21.6053 21.8428 22.0553 21.8053C23.6491 21.7115 24.3241 21.3365 24.3241 21.3365C26.6303 20.849 28.8616 18.6178 28.8616 15.6178C28.8616 13.199 27.7928 10.349 27.5116 8.26776C27.4178 7.57401 27.7178 6.88025 27.7741 6.524C27.8303 5.94275 27.3991 5.30526 26.9303 5.56776ZM13.4866 11.024C13.3741 10.8365 13.2053 10.949 13.2991 11.1365C13.4116 11.3615 14.3678 13.4803 16.4116 15.7678C16.5053 15.8615 16.5991 16.049 16.6178 16.124C16.6741 16.3865 16.9928 16.349 17.0491 16.124C17.0678 16.0303 17.1053 15.9365 17.1241 15.8428C17.1428 15.7865 17.1616 15.6553 17.0491 15.5428C15.8303 14.324 14.6491 12.9365 13.4866 11.024ZM13.8991 8.09901C13.8428 8.02401 13.7678 7.94901 13.7491 7.89276C13.6553 7.93025 13.5991 7.98651 13.6928 8.2115C14.4991 9.99275 17.0303 12.6178 17.6491 13.2178C17.7991 13.3678 17.8178 13.4615 17.8553 13.5928C17.9866 14.0803 18.2866 14.024 18.3991 13.8178C18.4741 13.6678 18.5491 13.5365 18.5678 13.4615C18.5866 13.3865 18.6053 13.2928 18.4928 13.199C16.9366 11.8303 15.1553 9.76776 13.8991 8.09901ZM15.6428 6.20526C15.5491 6.05525 15.3803 5.81151 15.3803 5.81151C15.3803 5.81151 15.1553 5.86775 15.3053 6.149C16.2053 7.8365 18.5678 10.499 19.4866 11.249C19.5803 11.324 19.7303 11.5303 19.7866 11.699C19.8991 12.0553 20.1803 12.0365 20.3303 11.849C20.4053 11.7553 20.4803 11.6615 20.5178 11.549C20.5741 11.4553 20.5366 11.324 20.3866 11.1928C17.7053 8.88651 15.6428 6.20526 15.6428 6.20526ZM19.8991 3.54276C19.8053 3.82401 19.5991 4.29276 19.9741 5.06151C20.6678 6.50526 22.0928 7.83651 22.9928 10.0678C22.7303 9.88026 22.5241 9.71151 22.2053 9.46776C21.5491 7.89276 19.7116 5.81151 19.5616 4.96776C19.4491 4.38651 19.2991 3.78651 19.2991 3.78651L19.8991 3.54276Z" fill="#B55E19"/>
</g>
</g>
<defs>
<clipPath id="clip0_53_303">
<rect width="24" height="24" fill="white"/>
</clipPath>
</defs>
</svg>
