<svg width="20" height="16" viewBox="0 0 20 16" fill="none" xmlns="http://www.w3.org/2000/svg">
<path d="M11.0001 4.0071C14.1691 4.0071 15.9661 6.1041 16.2271 8.6371H16.3071C16.7913 8.63645 17.271 8.7312 17.7186 8.91594C18.1663 9.10069 18.5732 9.37181 18.916 9.71382C19.2589 10.0558 19.531 10.462 19.7168 10.9092C19.9026 11.3564 19.9986 11.8358 19.9991 12.3201C19.9984 12.8043 19.9024 13.2836 19.7165 13.7307C19.5306 14.1778 19.2585 14.5838 18.9156 14.9257C18.5728 15.2676 18.166 15.5387 17.7184 15.7234C17.2708 15.908 16.7913 16.0028 16.3071 16.0021H5.69308C5.2089 16.0028 4.72933 15.908 4.28175 15.7234C3.83417 15.5387 3.42735 15.2676 3.08451 14.9257C2.74168 14.5838 2.46955 14.1778 2.28365 13.7307C2.09775 13.2836 2.00174 12.8043 2.00108 12.3201C2.00161 11.8358 2.09753 11.3564 2.28336 10.9092C2.4692 10.462 2.74131 10.0558 3.08416 9.71382C3.42701 9.37181 3.83387 9.10069 4.28152 8.91594C4.72916 8.7312 5.20881 8.63645 5.69308 8.6371H5.77308C6.03608 6.0871 7.83208 4.0071 11.0001 4.0071ZM11.0001 5.5051C8.92908 5.5051 7.12308 7.1381 7.12308 9.3941C7.12308 9.7511 6.80408 10.0321 6.43908 10.0321H5.74908C4.48808 10.0321 3.46508 11.0331 3.46508 12.2681C3.46508 13.5031 4.48808 14.5041 5.74908 14.5041H16.2511C17.5131 14.5041 18.5351 13.5041 18.5351 12.2681C18.5351 11.0331 17.5131 10.0321 16.2521 10.0321H15.5611C15.1961 10.0321 14.8771 9.7521 14.8771 9.3941C14.8771 7.1091 13.0711 5.5041 11.0001 5.5041M2.36608 8.1611C2.43553 8.32869 2.44189 8.51577 2.38397 8.68769C2.32605 8.85961 2.20779 9.00471 2.05108 9.0961L1.96008 9.1411L1.03308 9.5251C0.857726 9.59658 0.661825 9.59907 0.484705 9.53209C0.307585 9.46511 0.162359 9.3336 0.0781806 9.16398C-0.00599798 8.99436 -0.0228974 8.79917 0.0308748 8.6176C0.084647 8.43604 0.20511 8.28153 0.368081 8.1851L0.459081 8.1391L1.38608 7.7561C1.56975 7.67991 1.77616 7.67977 1.95993 7.75571C2.1437 7.83166 2.28979 7.97747 2.36608 8.1611ZM8.85308 3.3281L8.68108 3.3861C8.16087 3.56812 7.66926 3.82335 7.22108 4.1441C6.73961 3.98771 6.22143 3.98481 5.73824 4.13582C5.25504 4.28683 4.83072 4.58427 4.52398 4.98699C4.21725 5.38972 4.04325 5.87782 4.02607 6.38377C4.00889 6.88972 4.14937 7.3885 4.42808 7.8111C3.94028 7.94771 3.4784 8.16396 3.06108 8.4511C2.60275 7.66333 2.43155 6.74108 2.57661 5.8413C2.72168 4.94151 3.17404 4.1198 3.85672 3.51598C4.53941 2.91216 5.41023 2.56355 6.32099 2.52948C7.23176 2.49541 8.12619 2.77798 8.85208 3.3291M0.938082 3.3601L1.04308 3.3951L1.97008 3.7791C2.14421 3.85209 2.2844 3.98807 2.36266 4.15989C2.44093 4.33171 2.45151 4.52673 2.3923 4.706C2.33308 4.88528 2.20843 5.03563 2.04323 5.12704C1.87803 5.21844 1.68443 5.24418 1.50108 5.1991L1.39808 5.1661L0.471082 4.7821C0.296957 4.70911 0.156768 4.57313 0.0785025 4.40131C0.000237122 4.2295 -0.0103457 4.03448 0.0488668 3.8552C0.108079 3.67592 0.23273 3.52557 0.397934 3.43417C0.563137 3.34276 0.756737 3.31703 0.940081 3.3621M4.75508 0.376103L4.80008 0.467103L5.18408 1.3941C5.25555 1.56946 5.25805 1.76536 5.19107 1.94248C5.12408 2.1196 4.99258 2.26482 4.82296 2.349C4.65334 2.43318 4.45815 2.45008 4.27658 2.39631C4.09502 2.34254 3.94051 2.22207 3.84408 2.0591L3.79808 1.9681L3.41508 1.0411C3.34361 0.865747 3.34111 0.669846 3.4081 0.492726C3.47508 0.315607 3.60658 0.170381 3.7762 0.0862019C3.94583 0.00202332 4.14101 -0.0148763 4.32258 0.0388958C4.50415 0.092668 4.65865 0.213131 4.75508 0.376103ZM9.10908 0.0571029C9.27511 0.126014 9.41087 0.252265 9.49163 0.412866C9.57238 0.573466 9.59277 0.757731 9.54908 0.932103L9.51408 1.0371L9.13108 1.9641C9.05921 2.1399 8.92332 2.28187 8.75084 2.36138C8.57837 2.44089 8.38215 2.452 8.2018 2.39247C8.02145 2.33295 7.8704 2.20722 7.77914 2.04067C7.68787 1.87412 7.66319 1.67914 7.71008 1.4951L7.74508 1.3891L8.12908 0.463103C8.16676 0.37209 8.222 0.289391 8.29165 0.21973C8.36129 0.150069 8.44398 0.0948099 8.53498 0.0571082C8.62599 0.0194065 8.72353 9.00314e-07 8.82203 0C8.92054 -9.00251e-07 9.01808 0.0194029 9.10908 0.0571029Z" fill="white"/>
</svg>
