<svg width="16" height="16" viewBox="0 0 16 16" fill="none" xmlns="http://www.w3.org/2000/svg">
<path d="M3.99996 1.3335C3.64634 1.3335 3.3072 1.47397 3.05715 1.72402C2.8071 1.97407 2.66663 2.31321 2.66663 2.66683V13.3335C2.66663 13.6871 2.8071 14.0263 3.05715 14.2763C3.3072 14.5264 3.64634 14.6668 3.99996 14.6668H12C12.3536 14.6668 12.6927 14.5264 12.9428 14.2763C13.1928 14.0263 13.3333 13.6871 13.3333 13.3335V5.3335L9.33329 1.3335H3.99996ZM3.99996 2.66683H8.66663V6.00016H12V13.3335H3.99996V2.66683ZM5.33329 8.00016V9.3335H10.6666V8.00016H5.33329ZM5.33329 10.6668V12.0002H8.66663V10.6668H5.33329Z" fill="#413B3F"/>
</svg>
