<svg width="16" height="16" viewBox="0 0 16 16" fill="none" xmlns="http://www.w3.org/2000/svg">
<path d="M8 2H3.33333C2.97971 2 2.64057 2.14048 2.39052 2.39052C2.14048 2.64057 2 2.97971 2 3.33333V12.6667C2 13.0203 2.14048 13.3594 2.39052 13.6095C2.64057 13.8595 2.97971 14 3.33333 14H12.6667C13.0203 14 13.3594 13.8595 13.6095 13.6095C13.8595 13.3594 14 13.0203 14 12.6667V8" stroke="#413B3F" stroke-width="2" stroke-linecap="round" stroke-linejoin="round"/>
<path d="M12.25 1.75015C12.5152 1.48493 12.8749 1.33594 13.25 1.33594C13.6251 1.33594 13.9848 1.48493 14.25 1.75015C14.5152 2.01537 14.6642 2.37508 14.6642 2.75015C14.6642 3.12522 14.5152 3.48493 14.25 3.75015L8.24136 9.75948C8.08305 9.91765 7.88749 10.0334 7.67269 10.0962L5.75735 10.6562C5.69999 10.6729 5.63918 10.6739 5.58129 10.6591C5.52341 10.6442 5.47057 10.6141 5.42832 10.5719C5.38607 10.5296 5.35595 10.4768 5.34112 10.4189C5.32629 10.361 5.32729 10.3002 5.34402 10.2428L5.90402 8.32748C5.96704 8.11285 6.08304 7.91752 6.24136 7.75948L12.25 1.75015Z" stroke="#413B3F" stroke-width="2" stroke-linecap="round" stroke-linejoin="round"/>
</svg>
