<svg width="13" height="16" viewBox="0 0 13 16" fill="none" xmlns="http://www.w3.org/2000/svg">
<path d="M0.147588 1.38102C0.179066 1.00284 0.345334 0.650877 0.61337 0.395034C0.881406 0.139191 1.2316 -0.00181552 1.59441 1.76522e-05C1.93853 1.76522e-05 2.25665 0.124836 2.50671 0.333667C2.77437 0.117411 3.103 7.75166e-05 3.44118 1.76522e-05C3.79294 1.76522e-05 4.11718 0.124036 4.37565 0.333667C4.63445 0.11679 4.95637 -0.00094232 5.28794 1.76522e-05C6.03429 1.76522e-05 6.66976 0.589705 6.73477 1.38102C6.799 2.16114 6.88235 3.36772 6.88235 4.40067C6.88243 5.02112 6.72926 5.63106 6.43772 6.17134C6.14617 6.71162 5.72614 7.1639 5.21835 7.48433C5.04859 7.59155 5.00424 7.72437 5.00882 7.79318C5.10594 9.34061 5.35294 13.3556 5.35294 13.9997C5.35294 14.5302 5.15152 15.039 4.793 15.4141C4.43447 15.7893 3.94821 16 3.44118 16C2.93414 16 2.44788 15.7893 2.08935 15.4141C1.73083 15.039 1.52941 14.5302 1.52941 13.9997C1.52941 13.3556 1.77641 9.34061 1.87353 7.79318C1.87735 7.72357 1.83376 7.59155 1.664 7.48433C1.15621 7.1639 0.73618 6.71162 0.444634 6.17134C0.153089 5.63106 -7.33516e-05 5.02112 2.63533e-08 4.40067C2.63533e-08 3.36852 0.083353 2.16114 0.147588 1.38102ZM4.97059 4.20064C4.97059 4.3598 4.91016 4.51243 4.80261 4.62497C4.69505 4.73751 4.54917 4.80073 4.39706 4.80073C4.24495 4.80073 4.09907 4.73751 3.99151 4.62497C3.88396 4.51243 3.82353 4.3598 3.82353 4.20064V1.60026C3.82353 1.49415 3.78325 1.3924 3.71154 1.31737C3.63984 1.24235 3.54258 1.2002 3.44118 1.2002C3.33977 1.2002 3.24252 1.24235 3.17081 1.31737C3.09911 1.3924 3.05882 1.49415 3.05882 1.60026V4.20064C3.05882 4.3598 2.9984 4.51243 2.89084 4.62497C2.78328 4.73751 2.6374 4.80073 2.48529 4.80073C2.33318 4.80073 2.18731 4.73751 2.07975 4.62497C1.97219 4.51243 1.91176 4.3598 1.91176 4.20064V1.53225C1.91176 1.44418 1.87833 1.35972 1.81881 1.29745C1.7593 1.23518 1.67858 1.2002 1.59441 1.2002C1.51884 1.19882 1.44555 1.22729 1.38914 1.27993C1.33273 1.33258 1.29736 1.40552 1.29006 1.48424C1.22659 2.25635 1.14706 3.42053 1.14706 4.40067C1.14706 5.2728 1.59059 6.03612 2.25741 6.45698C2.67418 6.72102 3.05806 7.22509 3.01829 7.87159C2.91888 9.45583 2.67647 13.4068 2.67647 14.0005C2.67647 14.2127 2.75704 14.4162 2.90045 14.5663C3.04386 14.7163 3.23836 14.8006 3.44118 14.8006C3.64399 14.8006 3.8385 14.7163 3.98191 14.5663C4.12532 14.4162 4.20588 14.2127 4.20588 14.0005C4.20588 13.4068 3.96347 9.45583 3.86406 7.87159C3.82429 7.22509 4.20818 6.72102 4.62494 6.45698C4.96373 6.24344 5.244 5.94189 5.43855 5.5816C5.6331 5.2213 5.73533 4.8145 5.73529 4.40067C5.73529 3.42133 5.65576 2.25635 5.59229 1.48424C5.585 1.40552 5.54962 1.33258 5.49321 1.27993C5.43681 1.22729 5.36351 1.19882 5.28794 1.2002C5.20377 1.2002 5.12305 1.23518 5.06354 1.29745C5.00402 1.35972 4.97059 1.44418 4.97059 1.53225V4.20064ZM7.64706 4.6007C7.64706 3.38052 8.11032 2.21032 8.93493 1.34753C9.75954 0.484731 10.8779 1.76522e-05 12.0441 1.76522e-05C12.1962 1.76522e-05 12.3421 0.0632411 12.4497 0.17578C12.5572 0.288318 12.6176 0.440953 12.6176 0.600107V7.40112C12.6176 7.65556 12.6987 8.91735 12.7897 10.3152L12.7935 10.3816C12.8929 11.9082 13 13.5684 13 13.9997C13 14.5302 12.7986 15.039 12.4401 15.4141C12.0815 15.7893 11.5953 16 11.0882 16C10.5812 16 10.0949 15.7893 9.73641 15.4141C9.37789 15.039 9.17647 14.5302 9.17647 13.9997C9.17647 13.5884 9.27435 11.9106 9.36918 10.372C9.41659 9.59505 9.46476 8.84213 9.50071 8.28365L9.51829 8.00121H8.98529C8.80956 8.00121 8.63554 7.96499 8.47317 7.89462C8.31081 7.82426 8.16329 7.72112 8.03902 7.5911C7.91475 7.46108 7.81618 7.30672 7.74893 7.13684C7.68167 6.96696 7.64706 6.78488 7.64706 6.601V4.6007ZM10.7044 7.44273L10.6883 7.69396C10.628 8.61237 10.5696 9.53091 10.5132 10.4496C10.4168 12.0178 10.3235 13.6388 10.3235 13.9997C10.3235 14.2119 10.4041 14.4154 10.5475 14.5655C10.6909 14.7155 10.8854 14.7998 11.0882 14.7998C11.291 14.7998 11.4856 14.7155 11.629 14.5655C11.7724 14.4154 11.8529 14.2119 11.8529 13.9997C11.8529 13.6156 11.7474 11.9786 11.6449 10.396L11.6396 10.3128C11.5532 8.98536 11.4706 7.70276 11.4706 7.40112V1.253C10.72 1.39381 10.0406 1.80629 9.55131 2.41829C9.06202 3.03029 8.79399 3.80281 8.79412 4.6007V6.601C8.79412 6.71142 8.87976 6.80103 8.98529 6.80103H10.1324C10.211 6.80105 10.2888 6.818 10.3609 6.85082C10.4331 6.88365 10.498 6.93164 10.5516 6.99182C10.6053 7.05201 10.6465 7.12309 10.6728 7.20066C10.6991 7.27823 10.7098 7.36063 10.7044 7.44273Z" fill="#413B3F"/>
</svg>
