<svg width="14" height="18" viewBox="0 0 14 18" fill="none" xmlns="http://www.w3.org/2000/svg">
<path d="M9.99999 8.19999C9.99999 8.99564 9.68392 9.7587 9.12131 10.3213C8.5587 10.8839 7.79564 11.2 6.99999 11.2C6.20435 11.2 5.44129 10.8839 4.87868 10.3213C4.31607 9.7587 4 8.99564 4 8.19999V4C4 3.20435 4.31607 2.44129 4.87868 1.87868C5.44129 1.31607 6.20435 1 6.99999 1C7.79564 1 8.5587 1.31607 9.12131 1.87868C9.68392 2.44129 9.99999 3.20435 9.99999 4V8.19999Z" stroke="#757575" stroke-width="2" stroke-linecap="round" stroke-linejoin="round"/>
<path d="M13 8.7998C13.0016 9.50939 12.863 10.2123 12.5922 10.8682C12.3213 11.524 11.9236 12.12 11.4219 12.6217C10.9201 13.1235 10.3242 13.5212 9.66836 13.792C9.01248 14.0628 8.30958 14.2014 7.6 14.1998H6.4C5.69042 14.2014 4.98752 14.0628 4.33165 13.792C3.67577 13.5212 3.07986 13.1235 2.57811 12.6217C2.07635 12.12 1.67866 11.524 1.40784 10.8682C1.13703 10.2123 0.998431 9.50939 1.00001 8.7998M7 14.1998V16.5998" stroke="#757575" stroke-width="2" stroke-linecap="round" stroke-linejoin="round"/>
</svg>
