<svg width="20" height="20" viewBox="0 0 20 20" fill="none" xmlns="http://www.w3.org/2000/svg">
<path d="M19.2501 10C19.2517 11.2145 19.0136 12.4173 18.5494 13.5396C18.0852 14.6618 17.4041 15.6815 16.5451 16.54C15.6858 17.3996 14.6654 18.0814 13.5423 18.5464C12.4193 19.0114 11.2156 19.2505 10.0001 19.25C8.69194 19.2529 7.39817 18.9767 6.20515 18.44L2.33815 19.012C2.14615 19.0433 1.9494 19.0274 1.76498 18.9654C1.58057 18.9034 1.41407 18.7974 1.27995 18.6565C1.14583 18.5155 1.04814 18.344 0.995373 18.1568C0.942603 17.9695 0.936346 17.7722 0.977146 17.582L1.51415 13.659C1.00334 12.5072 0.74293 11.26 0.750146 10C0.748593 8.78553 0.98673 7.5827 1.45091 6.46044C1.91508 5.33817 2.59618 4.31855 3.45515 3.46C4.31453 2.60042 5.33491 1.91864 6.45795 1.45364C7.58098 0.98864 8.78465 0.749538 10.0001 0.750001C12.4548 0.750164 14.8089 1.72491 16.5451 3.46C17.4037 4.31888 18.0845 5.33856 18.5486 6.46075C19.0128 7.58294 19.2512 8.78561 19.2501 10Z" stroke="#5E208D" stroke-width="1.5" stroke-linecap="round" stroke-linejoin="round"/>
</svg>
