<svg width="15" height="16" viewBox="0 0 15 16" fill="none" xmlns="http://www.w3.org/2000/svg">
<path d="M2.90912 12.3635C2.90912 12.5564 2.98574 12.7414 3.12213 12.8778C3.25852 13.0142 3.44351 13.0908 3.63639 13.0908L10.9091 13.0908C11.102 13.0908 11.287 13.0142 11.4234 12.8778C11.5598 12.7414 11.6364 12.5564 11.6364 12.3635C11.6364 12.1707 11.5598 11.9857 11.4234 11.8493C11.287 11.7129 11.102 11.6363 10.9091 11.6363H3.63639C3.44351 11.6363 3.25852 11.7129 3.12213 11.8493C2.98574 11.9857 2.90912 12.1707 2.90912 12.3635ZM2.90912 9.45446C2.90912 9.64734 2.98574 9.83233 3.12213 9.96872C3.25852 10.1051 3.44351 10.1817 3.63639 10.1817H10.9091C11.102 10.1817 11.287 10.1051 11.4234 9.96872C11.5598 9.83233 11.6364 9.64734 11.6364 9.45446C11.6364 9.26157 11.5598 9.07659 11.4234 8.9402C11.287 8.80381 11.102 8.72718 10.9091 8.72718H3.63639C3.44351 8.72718 3.25852 8.80381 3.12213 8.9402C2.98574 9.07659 2.90912 9.26157 2.90912 9.45446ZM3.63639 7.27264C3.44351 7.27264 3.25852 7.19602 3.12213 7.05963C2.98574 6.92324 2.90912 6.73825 2.90912 6.54537C2.90912 6.35248 2.98574 6.1675 3.12213 6.03111C3.25852 5.89472 3.44351 5.81809 3.63639 5.81809L10.9091 5.81809C11.102 5.81809 11.287 5.89472 11.4234 6.03111C11.5598 6.1675 11.6364 6.35248 11.6364 6.54537C11.6364 6.73825 11.5598 6.92324 11.4234 7.05963C11.287 7.19602 11.102 7.27264 10.9091 7.27264L3.63639 7.27264ZM2.90912 3.63628C2.90912 3.82916 2.98574 4.01414 3.12213 4.15054C3.25852 4.28693 3.44351 4.36355 3.63639 4.36355H6.54548C6.73837 4.36355 6.92335 4.28693 7.05974 4.15054C7.19613 4.01414 7.27276 3.82916 7.27276 3.63628C7.27276 3.44339 7.19613 3.25841 7.05974 3.12201C6.92335 2.98563 6.73837 2.909 6.54548 2.909H3.63639C3.44351 2.909 3.25852 2.98563 3.12213 3.12201C2.98574 3.25841 2.90912 3.44339 2.90912 3.63628Z" fill="#413B3F"/>
<path fill-rule="evenodd" clip-rule="evenodd" d="M0 13.8182C0 14.3968 0.22987 14.9518 0.63904 15.361C1.04821 15.7701 1.60316 16 2.18182 16L12.3636 16C12.9423 16 13.4972 15.7701 13.9064 15.361C14.3156 14.9518 14.5455 14.3968 14.5455 13.8182L14.5455 2.18182C14.5455 1.60316 14.3156 1.04821 13.9064 0.639039C13.4972 0.229869 12.9423 0 12.3636 0H2.18182C1.60316 0 1.04821 0.229869 0.63904 0.639039C0.22987 1.04821 0 1.60316 0 2.18182L0 13.8182ZM2.18182 14.5455L12.3636 14.5455C12.5565 14.5455 12.7415 14.4688 12.8779 14.3324C13.0143 14.1961 13.0909 14.0111 13.0909 13.8182L13.0909 2.18182C13.0909 1.98893 13.0143 1.80395 12.8779 1.66756C12.7415 1.53117 12.5565 1.45455 12.3636 1.45455L2.18182 1.45455C1.98893 1.45455 1.80395 1.53117 1.66756 1.66756C1.53117 1.80395 1.45455 1.98893 1.45455 2.18182L1.45455 13.8182C1.45455 14.0111 1.53117 14.1961 1.66756 14.3324C1.80395 14.4688 1.98893 14.5455 2.18182 14.5455Z" fill="#413B3F"/>
</svg>
