<svg width="24" height="24" viewBox="0 0 24 24" fill="none" xmlns="http://www.w3.org/2000/svg">
<path fill-rule="evenodd" clip-rule="evenodd" d="M7.33331 9.99967C7.33331 8.762 7.82497 7.57501 8.70014 6.69984C9.57531 5.82467 10.7623 5.33301 12 5.33301C13.2377 5.33301 14.4246 5.82467 15.2998 6.69984C16.175 7.57501 16.6666 8.762 16.6666 9.99967V12.509L17.8813 14.9383C17.9372 15.0502 17.9636 15.1744 17.958 15.2993C17.9524 15.4242 17.9149 15.5456 17.8492 15.6519C17.7835 15.7582 17.6917 15.846 17.5825 15.9069C17.4733 15.9678 17.3503 15.9997 17.2253 15.9997H14.5826C14.4343 16.5718 14.1003 17.0786 13.6328 17.4403C13.1654 17.802 12.591 17.9983 12 17.9983C11.4089 17.9983 10.8346 17.802 10.3671 17.4403C9.89969 17.0786 9.5656 16.5718 9.41731 15.9997H6.77464C6.64963 15.9997 6.52668 15.9678 6.41749 15.9069C6.30829 15.846 6.21647 15.7582 6.15074 15.6519C6.08501 15.5456 6.04756 15.4242 6.04194 15.2993C6.03632 15.1744 6.06272 15.0502 6.11864 14.9383L7.33331 12.509V9.99967ZM10.8453 15.9997C10.9623 16.2024 11.1307 16.3707 11.3333 16.4877C11.536 16.6047 11.7659 16.6663 12 16.6663C12.234 16.6663 12.4639 16.6047 12.6666 16.4877C12.8693 16.3707 13.0376 16.2024 13.1546 15.9997H10.8453ZM12 6.66634C11.1159 6.66634 10.2681 7.01753 9.64295 7.64265C9.01783 8.26777 8.66664 9.11562 8.66664 9.99967V12.509C8.66663 12.7159 8.61847 12.9199 8.52597 13.105L7.74597 14.6663H16.2546L15.4746 13.105C15.3819 12.92 15.3335 12.716 15.3333 12.509V9.99967C15.3333 9.11562 14.9821 8.26777 14.357 7.64265C13.7319 7.01753 12.884 6.66634 12 6.66634Z" fill="#413B3F"/>
</svg>
