<svg width="9" height="13" viewBox="0 0 9 13" fill="none" xmlns="http://www.w3.org/2000/svg">
<path d="M0.5 12.5V11.1667C0.5 10.4594 0.780951 9.78115 1.28105 9.28105C1.78115 8.78095 2.45942 8.5 3.16667 8.5H5.83333C6.54058 8.5 7.21885 8.78095 7.71895 9.28105C8.21905 9.78115 8.5 10.4594 8.5 11.1667V12.5M1.83333 3.16667C1.83333 3.87391 2.11428 4.55219 2.61438 5.05229C3.11448 5.55238 3.79276 5.83333 4.5 5.83333C5.20724 5.83333 5.88552 5.55238 6.38562 5.05229C6.88572 4.55219 7.16667 3.87391 7.16667 3.16667C7.16667 2.45942 6.88572 1.78115 6.38562 1.28105C5.88552 0.780951 5.20724 0.5 4.5 0.5C3.79276 0.5 3.11448 0.780951 2.61438 1.28105C2.11428 1.78115 1.83333 2.45942 1.83333 3.16667Z" stroke="#413B3F" stroke-linecap="round" stroke-linejoin="round"/>
</svg>
