<svg width="19" height="19" viewBox="0 0 19 19" fill="none" xmlns="http://www.w3.org/2000/svg">
<path d="M6.5 7.49982L9.758 9.94382C9.95984 10.0952 10.2114 10.1647 10.4624 10.1383C10.7133 10.112 10.945 9.9918 11.111 9.80182L17.5 2.49982" stroke="#757575" stroke-linecap="round"/>
<path d="M18.5 9.49984C18.5 11.3804 17.911 13.2137 16.8157 14.7423C15.7203 16.2708 14.1736 17.4179 12.3929 18.0224C10.6122 18.6269 8.68685 18.6583 6.8873 18.1124C5.08776 17.5665 3.50442 16.4706 2.35967 14.9787C1.21492 13.4867 0.566266 11.6736 0.504809 9.79413C0.443352 7.91461 0.972182 6.06305 2.01702 4.4995C3.06187 2.93595 4.57023 1.73896 6.33027 1.07665C8.0903 0.414347 10.0136 0.31999 11.83 0.806837" stroke="#757575" stroke-linecap="round"/>
</svg>
