<svg width="13" height="14" viewBox="0 0 13 14" fill="none" xmlns="http://www.w3.org/2000/svg">
<path d="M5.56333 13.3333C5.26333 13.3333 5.00511 13.2333 4.78867 13.0333C4.57222 12.8333 4.44156 12.5889 4.39667 12.3L4.24667 11.2C4.10222 11.1444 3.96622 11.0778 3.83867 11C3.71111 10.9222 3.586 10.8389 3.46333 10.75L2.43 11.1833C2.15222 11.3056 1.87444 11.3167 1.59667 11.2167C1.31889 11.1167 1.10222 10.9389 0.946667 10.6833L0.163333 9.31667C0.00777768 9.06111 -0.0366666 8.78889 0.03 8.5C0.0966667 8.21111 0.246667 7.97222 0.48 7.78333L1.36333 7.11667C1.35222 7.03889 1.34667 6.96378 1.34667 6.89133V6.44133C1.34667 6.36933 1.35222 6.29444 1.36333 6.21667L0.48 5.55C0.246667 5.36111 0.0966667 5.12222 0.03 4.83333C-0.0366666 4.54444 0.00777768 4.27222 0.163333 4.01667L0.946667 2.65C1.10222 2.39444 1.31889 2.21667 1.59667 2.11667C1.87444 2.01667 2.15222 2.02778 2.43 2.15L3.46333 2.58333C3.58556 2.49444 3.71333 2.41111 3.84667 2.33333C3.98 2.25556 4.11333 2.18889 4.24667 2.13333L4.39667 1.03333C4.44111 0.744444 4.57178 0.5 4.78867 0.3C5.00556 0.1 5.26378 0 5.56333 0H7.13C7.43 0 7.68844 0.1 7.90533 0.3C8.12222 0.5 8.25267 0.744444 8.29667 1.03333L8.44667 2.13333C8.59111 2.18889 8.72733 2.25556 8.85533 2.33333C8.98333 2.41111 9.10822 2.49444 9.23 2.58333L10.2633 2.15C10.5411 2.02778 10.8189 2.01667 11.0967 2.11667C11.3744 2.21667 11.5911 2.39444 11.7467 2.65L12.53 4.01667C12.6856 4.27222 12.73 4.54444 12.6633 4.83333C12.5967 5.12222 12.4467 5.36111 12.2133 5.55L11.33 6.21667C11.3411 6.29444 11.3467 6.36956 11.3467 6.442V6.89133C11.3467 6.96378 11.3356 7.03889 11.3133 7.11667L12.1967 7.78333C12.43 7.97222 12.58 8.21111 12.6467 8.5C12.7133 8.78889 12.6689 9.06111 12.5133 9.31667L11.7133 10.6833C11.5578 10.9389 11.3411 11.1167 11.0633 11.2167C10.7856 11.3167 10.5078 11.3056 10.23 11.1833L9.23 10.75C9.10778 10.8389 8.98 10.9222 8.84667 11C8.71333 11.0778 8.58 11.1444 8.44667 11.2L8.29667 12.3C8.25222 12.5889 8.12178 12.8333 7.90533 13.0333C7.68889 13.2333 7.43044 13.3333 7.13 13.3333H5.56333ZM5.68 12H6.99667L7.23 10.2333C7.57444 10.1444 7.894 10.014 8.18867 9.842C8.48333 9.67 8.75267 9.46155 8.99667 9.21667L10.6467 9.9L11.2967 8.76667L9.86333 7.68333C9.91889 7.52778 9.95778 7.364 9.98 7.192C10.0022 7.02 10.0133 6.84489 10.0133 6.66667C10.0133 6.48844 10.0022 6.31356 9.98 6.142C9.95778 5.97044 9.91889 5.80644 9.86333 5.65L11.2967 4.56667L10.6467 3.43333L8.99667 4.13333C8.75222 3.87778 8.48289 3.664 8.18867 3.492C7.89444 3.32 7.57489 3.18933 7.23 3.1L7.01333 1.33333H5.69667L5.46333 3.1C5.11889 3.18889 4.79956 3.31956 4.50533 3.492C4.21111 3.66444 3.94156 3.87267 3.69667 4.11667L2.04667 3.43333L1.39667 4.56667L2.83 5.63333C2.77444 5.8 2.73556 5.96667 2.71333 6.13333C2.69111 6.3 2.68 6.47778 2.68 6.66667C2.68 6.84444 2.69111 7.01667 2.71333 7.18333C2.73556 7.35 2.77444 7.51667 2.83 7.68333L1.39667 8.76667L2.04667 9.9L3.69667 9.2C3.94111 9.45555 4.21067 9.66956 4.50533 9.842C4.8 10.0144 5.11933 10.1449 5.46333 10.2333L5.68 12ZM6.38 9C7.02444 9 7.57444 8.77222 8.03 8.31667C8.48555 7.86111 8.71333 7.31111 8.71333 6.66667C8.71333 6.02222 8.48555 5.47222 8.03 5.01667C7.57444 4.56111 7.02444 4.33333 6.38 4.33333C5.72444 4.33333 5.17178 4.56111 4.722 5.01667C4.27222 5.47222 4.04711 6.02222 4.04667 6.66667C4.04622 7.31111 4.27133 7.86111 4.722 8.31667C5.17267 8.77222 5.72533 9 6.38 9Z" fill="#413B3F"/>
</svg>
