<svg width="21" height="20" viewBox="0 0 21 20" fill="none" xmlns="http://www.w3.org/2000/svg">
<path fill-rule="evenodd" clip-rule="evenodd" d="M20.08 1.74392C20.1236 1.47924 20.0955 1.2077 19.9985 0.957597C19.9015 0.707496 19.7392 0.487984 19.5285 0.321931C19.3178 0.155879 19.0665 0.0493626 18.8006 0.0134805C18.5348 -0.0224017 18.2642 0.0136631 18.017 0.117918L0.917018 7.31792C-0.274982 7.81992 -0.335982 9.54392 0.917018 10.0639C2.1579 10.5809 3.41669 11.0539 4.69102 11.4819C5.85902 11.8679 7.13302 12.2249 8.15402 12.3259C8.43302 12.6599 8.78402 12.9819 9.14202 13.2759C9.68902 13.7259 10.347 14.1889 11.027 14.6329C12.389 15.5229 13.9 16.3739 14.918 16.9279C16.135 17.5879 17.592 16.8279 17.81 15.5009L20.08 1.74392ZM2.83402 8.68092L17.958 2.31292L15.84 15.1529C14.841 14.6099 13.402 13.7969 12.12 12.9589C11.5292 12.5795 10.9587 12.1693 10.411 11.7299C10.2646 11.6103 10.1226 11.4856 9.98502 11.3559L13.946 7.39592C14.1337 7.20841 14.2391 6.95404 14.2392 6.68877C14.2393 6.4235 14.134 6.16906 13.9465 5.98142C13.759 5.79378 13.5046 5.68831 13.2394 5.68822C12.9741 5.68812 12.7197 5.79341 12.532 5.98092L8.19502 10.3179C7.46102 10.2239 6.43902 9.95192 5.31702 9.58192C4.48173 9.3036 3.6541 9.00283 2.83502 8.67992L2.83402 8.68092Z" fill="white"/>
</svg>
