<svg width="80" height="80" viewBox="0 0 80 80" fill="none" xmlns="http://www.w3.org/2000/svg">
<rect width="80" height="80" rx="40" fill="#456EC6" fill-opacity="0.1"/>
<path d="M20.5 59.4V55.1333C20.5 52.8702 21.399 50.6997 22.9994 49.0994C24.5997 47.499 26.7702 46.6 29.0333 46.6H37.5667C39.8298 46.6 42.0003 47.499 43.6006 49.0994C45.201 50.6997 46.1 52.8702 46.1 55.1333V59.4M48.2333 21.2773C50.0689 21.7473 51.6958 22.8148 52.8576 24.3116C54.0194 25.8084 54.6501 27.6492 54.6501 29.544C54.6501 31.4388 54.0194 33.2796 52.8576 34.7764C51.6958 36.2732 50.0689 37.3407 48.2333 37.8107M58.9 59.4V55.1333C58.8892 53.2499 58.2556 51.423 57.0979 49.9374C55.9403 48.4517 54.3236 47.3908 52.5 46.92M24.7667 29.5333C24.7667 31.7965 25.6657 33.967 27.266 35.5673C28.8663 37.1676 31.0368 38.0667 33.3 38.0667C35.5632 38.0667 37.7337 37.1676 39.334 35.5673C40.9343 33.967 41.8333 31.7965 41.8333 29.5333C41.8333 27.2702 40.9343 25.0997 39.334 23.4994C37.7337 21.899 35.5632 21 33.3 21C31.0368 21 28.8663 21.899 27.266 23.4994C25.6657 25.0997 24.7667 27.2702 24.7667 29.5333Z" stroke="#456EC6" stroke-width="4" stroke-linecap="round" stroke-linejoin="round"/>
</svg>
