<svg width="17" height="16" viewBox="0 0 17 16" fill="none" xmlns="http://www.w3.org/2000/svg">
<path fill-rule="evenodd" clip-rule="evenodd" d="M2.2695 14.2857C2.11902 14.2857 1.97471 14.2255 1.8683 14.1183C1.7619 14.0112 1.70212 13.8658 1.70212 13.7143V2.28571C1.70212 2.13416 1.7619 1.98882 1.8683 1.88165C1.97471 1.77449 2.11902 1.71429 2.2695 1.71429H12.7659C12.9916 1.71429 13.2081 1.62398 13.3677 1.46323C13.5273 1.30249 13.617 1.08447 13.617 0.857143C13.617 0.629814 13.5273 0.411797 13.3677 0.251051C13.2081 0.0903059 12.9916 3.38746e-09 12.7659 0H2.2695C1.66759 0 1.09033 0.240816 0.66472 0.66947C0.239107 1.09812 0 1.67951 0 2.28571V13.7143C0 14.3205 0.239107 14.9019 0.66472 15.3305C1.09033 15.7592 1.66759 16 2.2695 16H13.617C14.2189 16 14.7961 15.7592 15.2218 15.3305C15.6474 14.9019 15.8865 14.3205 15.8865 13.7143V10C15.8865 9.77267 15.7968 9.55466 15.6372 9.39391C15.4776 9.23316 15.2611 9.14286 15.0354 9.14286C14.8097 9.14286 14.5932 9.23316 14.4336 9.39391C14.274 9.55466 14.1844 9.77267 14.1844 10V13.7143C14.1844 13.8658 14.1246 14.0112 14.0182 14.1183C13.9118 14.2255 13.7675 14.2857 13.617 14.2857H2.2695ZM16.7716 4.20571C16.9219 4.04323 17.0038 3.82832 16.9999 3.60626C16.996 3.3842 16.9067 3.17233 16.7507 3.01529C16.5948 2.85825 16.3844 2.76829 16.164 2.76437C15.9435 2.76045 15.7301 2.84288 15.5688 2.99429L9.26182 9.34514L7.13643 7.13257C7.05889 7.05097 6.96609 6.9856 6.86338 6.94024C6.76067 6.89487 6.65007 6.8704 6.53794 6.86823C6.42581 6.86605 6.31435 6.88623 6.20999 6.92758C6.10562 6.96894 6.0104 7.03066 5.92979 7.1092C5.84919 7.18774 5.7848 7.28156 5.74032 7.38525C5.69583 7.48894 5.67214 7.60046 5.67059 7.71341C5.66905 7.82635 5.68969 7.93849 5.73132 8.04338C5.77295 8.14826 5.83475 8.24382 5.91317 8.32457L8.63998 11.1634C8.71843 11.2454 8.81232 11.3108 8.91614 11.3558C9.01997 11.4008 9.13166 11.4245 9.24469 11.4256C9.35772 11.4267 9.46983 11.405 9.57447 11.362C9.67911 11.3189 9.77419 11.2553 9.85416 11.1749L16.7716 4.20571Z" fill="#413B3F"/>
</svg>
