<svg width="30" height="30" viewBox="0 0 30 30" fill="none" xmlns="http://www.w3.org/2000/svg">
<rect width="30" height="30" rx="15" fill="#EF4770"/>
<path d="M18 14.2C18 14.9956 17.6839 15.7587 17.1213 16.3213C16.5587 16.8839 15.7956 17.2 15 17.2C14.2043 17.2 13.4413 16.8839 12.8787 16.3213C12.3161 15.7587 12 14.9956 12 14.2V10C12 9.20435 12.3161 8.44129 12.8787 7.87868C13.4413 7.31607 14.2043 7 15 7C15.7956 7 16.5587 7.31607 17.1213 7.87868C17.6839 8.44129 18 9.20435 18 10V14.2Z" stroke="white" stroke-linecap="round" stroke-linejoin="round"/>
<path d="M21 14.8C21.0016 15.5096 20.863 16.2125 20.5922 16.8683C20.3213 17.5242 19.9236 18.1201 19.4219 18.6219C18.9201 19.1236 18.3242 19.5213 17.6684 19.7922C17.0125 20.063 16.3096 20.2016 15.6 20.2H14.4C13.6904 20.2016 12.9875 20.063 12.3316 19.7922C11.6758 19.5213 11.0799 19.1236 10.5781 18.6219C10.0764 18.1201 9.67866 17.5242 9.40784 16.8683C9.13703 16.2125 8.99843 15.5096 9.00001 14.8M15 20.2V22.6" stroke="white" stroke-linecap="round" stroke-linejoin="round"/>
</svg>
